<?xml version="1.0" encoding="utf-8"?>
<!-- Generator: Adobe Illustrator 23.0.3, SVG Export Plug-In . SVG Version: 6.00 Build 0)  -->
<svg version="1.1" id="Calque_1" xmlns="http://www.w3.org/2000/svg" xmlns:xlink="http://www.w3.org/1999/xlink" x="0px" y="0px"
	 viewBox="0 0 150.1 150" style="enable-background:new 0 0 150.1 150;" xml:space="preserve">
<style type="text/css">
	.st0{fill:url(#SVGID_1_);}
	.st1{fill:#B79A79;}
	.st2{fill:url(#SVGID_2_);}
	.st3{fill:#C6A887;}
	.st4{fill:url(#SVGID_3_);}
	.st5{fill:#D3B28D;}
	.st6{fill:#FF491F;}
	.st7{fill:#ED3618;}
	.st8{fill:#FFE14D;}
	.st9{fill:#B2291B;}
	.st10{fill:#8E7C32;}
	.st11{fill:#3C3F4D;}
</style>
<linearGradient id="SVGID_1_" gradientUnits="userSpaceOnUse" x1="26.329" y1="66.4055" x2="123.3112" y2="83.5061" gradientTransform="matrix(-1 0 0 -1 150.2 150.1)">
	<stop  offset="0" style="stop-color:#987758"/>
	<stop  offset="0.363" style="stop-color:#9D7B59"/>
	<stop  offset="0.8209" style="stop-color:#AD865B"/>
	<stop  offset="0.8659" style="stop-color:#AF875B"/>
</linearGradient>
<rect x="32.9" y="32.7" class="st0" width="85" height="84.8"/>
<polygon class="st1" points="34.3,116 34.3,34.3 23.9,23.8 23.9,126.5 "/>
<linearGradient id="SVGID_2_" gradientUnits="userSpaceOnUse" x1="23.4701" y1="28.8558" x2="126.2701" y2="28.8558" gradientTransform="matrix(-1 0 0 -1 150.2 150.1)">
	<stop  offset="3.584340e-03" style="stop-color:#9E7951"/>
	<stop  offset="0.8746" style="stop-color:#8C6E50"/>
</linearGradient>
<polygon class="st2" points="116.3,116 34.3,116 23.9,126.5 126.7,126.5 "/>
<polygon class="st3" points="34.3,34.3 116.3,34.3 126.7,23.8 23.9,23.8 "/>
<linearGradient id="SVGID_3_" gradientUnits="userSpaceOnUse" x1="23.4701" y1="74.9558" x2="33.8701" y2="74.9558" gradientTransform="matrix(-1 0 0 -1 150.2 150.1)">
	<stop  offset="3.584340e-03" style="stop-color:#9E7951"/>
	<stop  offset="0.8746" style="stop-color:#8C6E50"/>
</linearGradient>
<polygon class="st4" points="116.3,34.3 116.3,116 126.7,126.5 126.7,23.8 "/>
<polygon class="st5" points="0.2,28 23.9,23.8 23.9,126.5 0.2,122.3 "/>
<polygon class="st5" points="28,150.1 23.9,126.5 126.7,126.5 122.6,150.1 "/>
<polygon class="st5" points="122.6,0.2 126.7,23.8 23.9,23.8 28,0.2 "/>
<polygon class="st5" points="126.7,23.8 150.4,28 150.4,122.3 126.7,126.5 "/>
<g>
	<path class="st6" d="M95.5,107.4H43.7c-1.1,0-2-0.9-2-2l5-50.8c0-1.1,0.9-2,2-2h41.8c1.1,0,2,0.9,2,2l5,50.8
		C97.5,106.5,96.6,107.4,95.5,107.4z"/>
	<path class="st7" d="M103.8,107.4H68.7c-0.7,0-1.4-0.6-1.4-1.4l3.4-34.4c0-0.7,0.6-1.4,1.4-1.4h28.3c0.7,0,1.4,0.6,1.4,1.4
		l3.4,34.4C105.2,106.8,104.6,107.4,103.8,107.4z"/>
	<path class="st8" d="M106.8,107.4H71.7c-0.7,0-1.4-0.6-1.4-1.4l3.4-34.4c0-0.7,0.6-1.4,1.4-1.4h28.3c0.7,0,1.4,0.6,1.4,1.4
		l3.4,34.4C108.2,106.8,107.6,107.4,106.8,107.4z"/>
	<path class="st9" d="M60.1,59c-1.9,0-3.5,1.6-3.5,3.5s1.6,3.5,3.5,3.5s3.5-1.6,3.5-3.5C63.7,60.6,62.1,59,60.1,59z"/>
	<path class="st9" d="M80.3,59c-1.9,0-3.5,1.6-3.5,3.5s1.6,3.5,3.5,3.5s3.5-1.6,3.5-3.5S82.2,59,80.3,59z"/>
	<circle class="st10" cx="83.4" cy="75.6" r="3.1"/>
	<circle class="st10" cx="95.4" cy="75.6" r="3.1"/>
	<path class="st11" d="M70.2,40c-6.3,0-11.5,5.2-11.5,11.5v9.2c0,0.8,0.6,1.4,1.4,1.4s1.4-0.6,1.4-1.4v-9.2c0-4.8,3.9-8.6,8.6-8.6
		c4.8,0,8.6,3.9,8.6,8.6v9.2c0,0.8,0.6,1.4,1.4,1.4s1.4-0.6,1.4-1.4v-9.2C81.7,45.1,76.5,40,70.2,40z"/>
	<path class="st11" d="M95.4,76.2c-0.8,0-1.4,0.6-1.4,1.4v6c0,2.5-2.1,4.6-4.6,4.6s-4.6-2.1-4.6-4.6v-6c0-0.8-0.6-1.4-1.4-1.4
		S82,76.8,82,77.6v6c0,4.1,3.3,7.4,7.4,7.4s7.4-3.3,7.4-7.4v-6C96.9,76.9,96.2,76.2,95.4,76.2z"/>
</g>
</svg>
