<?xml version="1.0" encoding="utf-8"?>
<!-- Generator: Adobe Illustrator 23.0.3, SVG Export Plug-In . SVG Version: 6.00 Build 0)  -->
<svg version="1.1" id="Calque_1" xmlns="http://www.w3.org/2000/svg" xmlns:xlink="http://www.w3.org/1999/xlink" x="0px" y="0px"
	 viewBox="0 0 150.2 150" style="enable-background:new 0 0 150.2 150;" xml:space="preserve">
<style type="text/css">
	.st0{fill:url(#SVGID_1_);}
	.st1{fill:#B79A79;}
	.st2{fill:url(#SVGID_2_);}
	.st3{fill:#C6A887;}
	.st4{fill:url(#SVGID_3_);}
	.st5{fill:#D3B28D;}
	.st6{fill:#1163F0;}
	.st7{fill:#4BAD4D;}
	.st8{opacity:0.25;fill:#333333;enable-background:new    ;}
	.st9{fill:#E85454;}
	.st10{fill:#FF5A5A;}
	.st11{fill:#FFFFFF;}
	.st12{fill:#D8A83D;}
	.st13{fill:#F1BE41;}
</style>
<linearGradient id="SVGID_1_" gradientUnits="userSpaceOnUse" x1="26.2918" y1="66.5006" x2="123.274" y2="83.6012" gradientTransform="matrix(-1 0 0 -1 150.2 150.1)">
	<stop  offset="0" style="stop-color:#987758"/>
	<stop  offset="0.363" style="stop-color:#9D7B59"/>
	<stop  offset="0.8209" style="stop-color:#AD865B"/>
	<stop  offset="0.8659" style="stop-color:#AF875B"/>
</linearGradient>
<rect x="32.9" y="32.6" class="st0" width="85" height="84.8"/>
<polygon class="st1" points="34.4,115.9 34.4,34.2 24,23.7 24,126.4 "/>
<linearGradient id="SVGID_2_" gradientUnits="userSpaceOnUse" x1="23.4329" y1="28.9509" x2="126.2329" y2="28.9509" gradientTransform="matrix(-1 0 0 -1 150.2 150.1)">
	<stop  offset="3.584340e-03" style="stop-color:#9E7951"/>
	<stop  offset="0.8746" style="stop-color:#8C6E50"/>
</linearGradient>
<polygon class="st2" points="116.4,115.9 34.4,115.9 24,126.4 126.8,126.4 "/>
<polygon class="st3" points="34.4,34.2 116.4,34.2 126.8,23.7 24,23.7 "/>
<linearGradient id="SVGID_3_" gradientUnits="userSpaceOnUse" x1="23.4329" y1="75.0509" x2="33.8329" y2="75.0509" gradientTransform="matrix(-1 0 0 -1 150.2 150.1)">
	<stop  offset="3.584340e-03" style="stop-color:#9E7951"/>
	<stop  offset="0.8746" style="stop-color:#8C6E50"/>
</linearGradient>
<polygon class="st4" points="116.4,34.2 116.4,115.9 126.8,126.4 126.8,23.7 "/>
<polygon class="st5" points="0.3,27.9 24,23.7 24,126.4 0.3,122.2 "/>
<polygon class="st5" points="28.1,150 24,126.4 126.8,126.4 122.7,150 "/>
<polygon class="st5" points="122.7,0.1 126.8,23.7 24,23.7 28.1,0.1 "/>
<polygon class="st5" points="126.8,23.7 150.5,27.9 150.5,122.2 126.8,126.4 "/>
<path class="st6" d="M109.1,76.2c0-17.7-14.4-32.1-32.1-32.1S44.9,58.5,44.9,76.2c0,11.6,6.2,21.8,15.4,27.4
	c4.9,3,10.6,4.7,16.7,4.7C94.7,108.4,109.1,94,109.1,76.2z"/>
<g>
	<path class="st7" d="M68.6,79.7l-21.2,9.1c2.6,6.2,7.2,11.4,12.8,14.8c3.1,1.9,6.6,3.3,10.3,4l0.3-0.2l2.3-4.2h1.8
		c2,0,3.7-1.7,3.7-3.7v-1.8c0-0.8,0.3-1.6,0.7-2.2l-5.1-7.6L68.6,79.7z"/>
	<path class="st7" d="M77,44.1c-6.2,0-12,1.7-16.9,4.8v0.8l8,3c0.7,0.3,1.2,1,1.1,1.7l0,0c0.6,1.8,2.8,2.7,4.5,1.8l1.7-0.9
		c5-2.7,11,1.4,10.3,7.1v0.1c-0.2,1.4-1.1,2.5-2.5,2.8c-0.9,0.2-1.8,0.4-2.7,0.6c-1.2,0.3-2.2,1.3-2.4,2.5L77,73.9
		c-0.4,1.9,1.1,3.8,3,3.9l1.4,0.1c0.4,0,0.8,0.1,1.2,0.3l7.8,9L89.6,97c-0.2,3,1.6,5.3,4,6.2l0.5,0.1C103,97.6,109,87.6,109,76.2
		C109.1,58.5,94.7,44.1,77,44.1z"/>
</g>
<path class="st8" d="M77,44.1c-17.7,0-32.1,14.4-32.1,32.1c0,11.6,6.2,21.8,15.4,27.4c4.9,3,10.6,4.7,16.7,4.7
	c17.7,0,32.1-14.4,32.1-32.1S94.7,44.1,77,44.1z M74,101.3c-5.3,0-10.3-1.5-14.5-4.1c-8-4.9-13.4-13.8-13.4-23.9
	c0-15.4,12.5-27.9,27.9-27.9s27.9,12.5,27.9,27.9C101.9,88.8,89.4,101.3,74,101.3z"/>
<path class="st9" d="M109.1,53.8c0-5.3-4.3-9.6-9.6-9.6c-5.3,0-9.6,4.3-9.6,9.6c0,2.3,0.8,4.4,2.2,6.1l0,0l7.5,9.6L107,60l0,0
	C108.2,58.2,109.1,56.1,109.1,53.8z"/>
<path class="st10" d="M100.8,67.6l6-7.7l0,0c1.4-1.7,2.2-3.8,2.2-6.1c0-5.3-4.3-9.6-9.6-9.6c-2.6,0-5,1.1-6.8,2.8
	c-0.9,1.5-1.5,3.2-1.5,5.1c0,2.3,0.8,4.4,2.2,6.1l0,0L100.8,67.6z"/>
<circle class="st11" cx="99.4" cy="53.9" r="4.6"/>
<path class="st12" d="M69.4,66.8c0-7.9-6.4-14.3-14.3-14.3s-14.3,6.4-14.3,14.3c0,3.4,1.2,6.6,3.2,9l0,0L55.1,90l11-14.2l0,0
	C68.2,73.4,69.4,70.2,69.4,66.8z"/>
<path class="st13" d="M56.8,87.9l9.4-12l0,0c2-2.5,3.3-5.6,3.3-9.1c0-7.9-6.4-14.3-14.3-14.3c-4.1,0-7.8,1.7-10.4,4.5
	c-1.4,2.2-2.3,4.9-2.3,7.7c0,3.4,1.2,6.6,3.2,9l0,0L56.8,87.9z"/>
<g>
	<path class="st11" d="M52.8,61.6l-1-0.3 M50.9,71.5l1.8,2.5l0,0c0,0,0.1,0.1,0.2,0.1s0.2,0,0.2-0.1l0.8-0.8C54,73.1,54,73,54,72.9
		L53.2,70l1.2-0.8l0,0l1.7-1.7l2.8,6.2c0,0,0,0.1,0.1,0.1l0.1,0.1c0.1,0,0.2,0,0.3-0.1l1.2-1.2c0.1-0.1,0.1-0.2,0.1-0.3l-0.3-1.1
		L59,66.6L58.6,65l2.1-2.1c0.6-0.6,1.1-1.4,1.4-2.2c0.1-0.4,0.1-0.7-0.1-1.1c-0.2-0.6-0.8-0.8-1.3-0.6c-0.9,0.3-1.7,0.8-2.3,1.4
		l-2.2,2.2l-1.6-0.5L50,60.7l-1.1-0.3c-0.1,0-0.2,0-0.3,0.1l-1.2,1.2c-0.1,0.1-0.1,0.2-0.1,0.3s0,0.1,0.1,0.1c0,0,0.1,0,0.1,0.1
		l6.2,2.8L52,66.7l0,0L51.2,68l-3-0.8c-0.1,0-0.2,0-0.3,0.1l-0.8,0.8C47,68.2,47,68.2,47,68.3s0,0.1,0.1,0.2l0,0l2.5,1.8L50.9,71.5z
		 M60,69.4l-0.3-1 M60.3,70.5l-0.2-0.7 M54.1,61.9l-0.6-0.2 M51.3,61.1l-0.7-0.2"/>
</g>
</svg>
