<?xml version="1.0" encoding="utf-8"?>
<!-- Generator: Adobe Illustrator 22.1.0, SVG Export Plug-In . SVG Version: 6.00 Build 0)  -->
<svg version="1.1" id="Calque_1" xmlns="http://www.w3.org/2000/svg" xmlns:xlink="http://www.w3.org/1999/xlink" x="0px" y="0px"
	 viewBox="0 0 175 150" style="enable-background:new 0 0 175 150;" xml:space="preserve">
<style type="text/css">
	.st0{fill:url(#SVGID_1_);}
	.st1{fill:#3BB25A;}
	.st2{fill:url(#SVGID_2_);}
	.st3{fill:url(#SVGID_3_);}
	.st4{fill:#B79A79;}
	.st5{fill:#C1A080;}
	.st6{fill:#DABA92;}
	.st7{fill:#E9E9E9;}
	.st8{fill:#1163F0;}
	.st9{fill:#C9C9C9;}
	.st10{fill:#41CE6C;}
	.st11{fill:#FC751B;}
	.st12{fill:#B9B9B9;}
	.st13{opacity:0.35;fill:#B9B9B9;}
</style>
<g>
	<g>
		<linearGradient id="SVGID_1_" gradientUnits="userSpaceOnUse" x1="41.3377" y1="109.7098" x2="133.326" y2="42.0106">
			<stop  offset="0" style="stop-color:#B79A79"/>
			<stop  offset="1" style="stop-color:#7F6955"/>
		</linearGradient>
		<rect x="37.1" y="34.7" class="st0" width="102.8" height="80.6"/>
		<path class="st1" d="M26.7,24.4v101.3h123.5V24.4H26.7z M139.9,115.3H37.1V34.7h102.8V115.3z"/>
		<linearGradient id="SVGID_2_" gradientUnits="userSpaceOnUse" x1="141.7299" y1="75" x2="152.0657" y2="75">
			<stop  offset="0" style="stop-color:#7F6955"/>
			<stop  offset="0.9745" style="stop-color:#B79A79"/>
		</linearGradient>
		<polygon class="st2" points="139.9,34.7 139.9,115.3 150.3,125.6 150.3,24.4 		"/>
		<linearGradient id="SVGID_3_" gradientUnits="userSpaceOnUse" x1="26.7445" y1="29.5226" x2="150.2569" y2="29.5226">
			<stop  offset="0" style="stop-color:#B79A79"/>
			<stop  offset="1" style="stop-color:#7F6955"/>
		</linearGradient>
		<polygon class="st3" points="37.1,34.7 139.9,34.7 150.3,24.4 26.7,24.4 		"/>
		<polygon class="st4" points="139.9,115.3 37.1,115.3 26.7,125.6 150.3,125.6 		"/>
		<polygon class="st5" points="37.1,115.3 37.1,34.7 26.7,24.4 26.7,125.6 		"/>
		<polygon class="st6" points="173.5,121.5 150.3,125.6 150.3,24.4 173.5,28.5 		"/>
		<polygon class="st6" points="146.1,1.1 150.3,24.4 26.7,24.4 30.9,1.1 		"/>
		<polygon class="st6" points="30.9,148.9 26.7,125.6 150.3,125.6 146.1,148.9 		"/>
		<polygon class="st6" points="26.7,125.6 3.5,121.5 3.5,28.5 26.7,24.4 		"/>
	</g>
	<g>
		
			<image style="overflow:visible;opacity:0.75;" width="102" height="80" xlink:href="1F873BAAF5FCCE5A.png"  transform="matrix(1 0 0 1 37.1113 34.7823)">
		</image>
		<g>
			<g>
				<g>
					
						<rect x="47.7" y="50.9" transform="matrix(0.9875 -0.1576 0.1576 0.9875 -11.4423 11.7998)" class="st7" width="41.9" height="54.2"/>
					
						<rect x="50" y="56.3" transform="matrix(0.9875 -0.1576 0.1576 0.9875 -8.671 11.1309)" class="st8" width="31.7" height="7.9"/>
					
						<rect x="68" y="67.9" transform="matrix(0.9875 -0.1576 0.1576 0.9875 -9.8857 12.7741)" class="st9" width="15.1" height="1.6"/>
					
						<rect x="68.6" y="71.6" transform="matrix(0.9875 -0.1576 0.1576 0.9875 -10.4522 12.9112)" class="st9" width="15.1" height="1.6"/>
					
						<rect x="69.3" y="75.7" transform="matrix(0.9875 -0.1576 0.1576 0.9875 -11.0996 13.0678)" class="st9" width="15.1" height="1.6"/>
					
						<rect x="69.9" y="79.9" transform="matrix(0.9875 -0.1576 0.1576 0.9875 -11.747 13.2245)" class="st9" width="15.1" height="1.6"/>
					
						<rect x="54.1" y="85.4" transform="matrix(0.9875 -0.1576 0.1576 0.9875 -12.7061 12.0932)" class="st9" width="31.5" height="1.6"/>
					
						<rect x="54.7" y="89" transform="matrix(0.9875 -0.1576 0.1576 0.9875 -13.271 12.237)" class="st9" width="31.6" height="1.6"/>
					
						<rect x="55.5" y="94.5" transform="matrix(0.9875 -0.1576 0.1576 0.9875 -14.2252 11.1258)" class="st9" width="15.1" height="1.6"/>
					
						<rect x="71.8" y="91.8" transform="matrix(0.9875 -0.1576 0.1576 0.9875 -13.6083 13.675)" class="st9" width="15.1" height="1.6"/>
					
						<rect x="56.1" y="98.6" transform="matrix(0.9875 -0.1576 0.1576 0.9875 -14.8726 11.2825)" class="st9" width="15.1" height="1.6"/>
					
						<rect x="72.5" y="96" transform="matrix(0.9875 -0.1576 0.1576 0.9875 -14.2557 13.8316)" class="st9" width="15.1" height="1.6"/>
					
						<rect x="52.6" y="70.5" transform="matrix(0.9875 -0.1576 0.1576 0.9875 -11.4333 10.4502)" class="st10" width="15.1" height="13.7"/>
					<polygon class="st7" points="132.9,82 126.4,41.4 85.1,48 93.6,101.5 122.1,96.9 					"/>
					
						<rect x="91.3" y="49.7" transform="matrix(0.9875 -0.1576 0.1576 0.9875 -7.114 17.5644)" class="st11" width="31.7" height="7.9"/>
					
						<rect x="92.9" y="62.6" transform="matrix(0.9875 -0.1576 0.1576 0.9875 -8.6372 17.933)" class="st9" width="31.7" height="1.6"/>
					
						<rect x="93.5" y="66.3" transform="matrix(0.9875 -0.1576 0.1576 0.9875 -9.2037 18.0701)" class="st9" width="31.7" height="1.6"/>
					
						<rect x="94.1" y="70.4" transform="matrix(0.9875 -0.1576 0.1576 0.9875 -9.8511 18.2268)" class="st9" width="31.7" height="1.6"/>
					
						<rect x="94.8" y="74.6" transform="matrix(0.9875 -0.1576 0.1576 0.9875 -10.4985 18.3835)" class="st9" width="31.7" height="1.6"/>
					
						<rect x="98.8" y="79.6" transform="matrix(0.9875 -0.1576 0.1576 0.9875 -11.3553 17.675)" class="st9" width="13.9" height="1.6"/>
					
						<rect x="95.6" y="81.1" transform="matrix(0.9875 -0.1576 0.1576 0.9875 -11.6992 16.254)" class="st9" width="2" height="1.6"/>
					
						<rect x="99.4" y="83.3" transform="matrix(0.9875 -0.1576 0.1576 0.9875 -11.9209 17.8157)" class="st9" width="14" height="1.6"/>
					
						<rect x="96.2" y="84.7" transform="matrix(0.9875 -0.1576 0.1576 0.9875 -12.2656 16.3911)" class="st9" width="2" height="1.6"/>
					
						<rect x="96.7" y="86.5" transform="matrix(0.9875 -0.1576 0.1576 0.9875 -12.3598 18.8339)" class="st9" width="31.7" height="1.6"/>
					
						<rect x="97.4" y="90.9" transform="matrix(0.9875 -0.1576 0.1576 0.9875 -13.0598 18.7731)" class="st9" width="28.9" height="1.6"/>
					<polygon class="st12" points="122.1,96.9 120,84.1 132.9,82 					"/>
					<polygon class="st13" points="120,84.1 122.1,96.9 109.2,99 					"/>
				</g>
				
					<rect x="47.7" y="50.9" transform="matrix(0.9875 -0.1576 0.1576 0.9875 -11.4423 11.7998)" class="st13" width="41.9" height="54.2"/>
			</g>
		</g>
	</g>
</g>
</svg>
