<?xml version="1.0" encoding="utf-8"?>
<!-- Generator: Adobe Illustrator 23.0.1, SVG Export Plug-In . SVG Version: 6.00 Build 0)  -->
<svg version="1.1" id="Calque_1" xmlns="http://www.w3.org/2000/svg" xmlns:xlink="http://www.w3.org/1999/xlink" x="0px" y="0px"
	 viewBox="0 0 20 20" style="enable-background:new 0 0 20 20;" xml:space="preserve">
<style type="text/css">
	.st0{fill:#676767;}
</style>
<path d="M19.2,7.1l-6.4-6.4C12.1,0,11,0,10.3,0.7L9.4,1.6c-0.7,0.7-0.7,1.8,0,2.5l0.4,0.4L6.1,8.1
	C4.2,7.6,2.5,7.1,0.6,9c-0.3,0.3-0.3,0.9,0,1.2l3.9,3.9l-3.3,3.3c-0.3,0.3-0.4,0.9-0.1,1.2C1.3,18.9,1.5,19,1.8,19s0.4-0.1,0.6-0.3
	l3.3-3.3l3.9,3.9c0.2,0.2,0.4,0.3,0.6,0.3s0.4-0.1,0.6-0.3c1.9-1.9,1.5-3.6,0.9-5.5l3.6-3.6l0.4,0.4c0.7,0.7,1.9,0.7,2.5,0l0.9-0.9
	c0.3-0.3,0.5-0.8,0.5-1.3S19.5,7.5,19.2,7.1z M17,9.3l-1-1c-0.3-0.3-0.9-0.3-1.2,0l-4.6,4.6c-0.2,0.2-0.3,0.6-0.2,0.9l0.1,0.4
	c0.4,1.5,0.7,2.3,0.1,3.2L2.5,9.7c0.9-0.5,1.7-0.3,3.2,0.1L6.2,10c0.3,0.1,0.6,0,0.9-0.2l4.6-4.6C11.9,5,12,4.8,12,4.6
	S11.9,4.1,11.7,4l-1-1.1L11.5,2l6.4,6.4L17,9.3z"/>
</svg>
