<?xml version="1.0" encoding="utf-8"?>
<!-- Generator: Adobe Illustrator 23.0.3, SVG Export Plug-In . SVG Version: 6.00 Build 0)  -->
<svg version="1.1" id="Calque_1" xmlns="http://www.w3.org/2000/svg" xmlns:xlink="http://www.w3.org/1999/xlink" x="0px" y="0px"
	 viewBox="0 0 30 30" style="enable-background:new 0 0 30 30;" xml:space="preserve">
<style type="text/css">
	.st0{fill:#02A29D;stroke:#00A29D;stroke-miterlimit:10;}
</style>
<path class="st0" d="M26.1,24.5L23.5,22c1.7-2,2.7-4.6,2.7-7.4c0-6.3-5.1-11.4-11.4-11.4C8.5,3.2,3.4,8.3,3.4,14.6
	s5.1,11.5,11.4,11.5c2.5,0,4.8-0.8,6.7-2.2l2.6,2.6c0.3,0.3,0.6,0.4,1,0.4s0.7-0.1,1-0.4C26.6,25.9,26.6,25,26.1,24.5z M6.2,14.6
	c0-4.7,3.9-8.6,8.6-8.6c4.8,0,8.6,3.9,8.6,8.6s-3.9,8.6-8.6,8.6S6.2,19.3,6.2,14.6z"/>
</svg>
