<?xml version="1.0" encoding="utf-8"?>
<!-- Generator: Adobe Illustrator 22.1.0, SVG Export Plug-In . SVG Version: 6.00 Build 0)  -->
<svg version="1.1" id="Calque_1" xmlns="http://www.w3.org/2000/svg" xmlns:xlink="http://www.w3.org/1999/xlink" x="0px" y="0px"
	 viewBox="0 0 18.8 22.2" style="enable-background:new 0 0 18.8 22.2;" xml:space="preserve">
<style type="text/css">
	.st0{fill:#333333;}
</style>
<title>Essential Icons</title>
<path class="st0" d="M16.3,7.4c0-0.4-0.3-0.7-0.7-0.7h-2.4V5.3c0-2.2-1.8-4-4-4s-4,1.8-4,4v1.4H2.9C2.5,6.7,2.2,7,2.2,7.4L1.2,20.5
	c0,0,0,0,0,0.1c0,0.4,0.3,0.7,0.7,0.7h14.6c0,0,0,0,0.1,0c0.4,0,0.7-0.4,0.7-0.8L16.3,7.4z M6.7,5.3c0-1.4,1.2-2.6,2.6-2.6
	s2.6,1.2,2.6,2.6v1.4H6.7V5.3z M2.7,19.9L3.5,8.1h1.7v2.8c0,0.4,0.3,0.7,0.7,0.7c0.4,0,0.7-0.3,0.7-0.7V8.1h5.2v2.8
	c0,0.4,0.3,0.7,0.7,0.7s0.7-0.3,0.7-0.7V8.1h1.7l0.8,11.8H2.7z"/>
</svg>
