<?xml version="1.0" encoding="utf-8"?>
<!-- Generator: Adobe Illustrator 23.0.1, SVG Export Plug-In . SVG Version: 6.00 Build 0)  -->
<svg version="1.1" id="Calque_1" xmlns="http://www.w3.org/2000/svg" xmlns:xlink="http://www.w3.org/1999/xlink" x="0px" y="0px"
	 viewBox="0 0 134 155" style="enable-background:new 0 0 134 155;" xml:space="preserve">
<style type="text/css">
	.st0{fill:#FFFFFF;}
</style>
<g>
	<path class="st0" d="M126.6,33.8L70.3,5.7c-1.9-0.9-4-0.9-5.9,0L8.1,33.8c-2.2,1.1-3.7,3.4-3.7,5.9v70.4c0,2.3,1.2,4.4,3.1,5.6
		l56.3,35.2c1.1,0.7,2.3,1,3.5,1c1.2,0,2.4-0.3,3.5-1l56.3-35.2c1.9-1.2,3.1-3.3,3.1-5.6V39.7C130.3,37.2,128.9,34.9,126.6,33.8z
		 M117.1,106.4l-49.7,31.1l-49.7-31.1V43.8L67.4,19l49.7,24.8V106.4z"/>
	<path class="st0" d="M45.4,52.4c-3.3-1.6-7.2-0.2-8.8,3c-1.6,3.3-0.2,7.2,3,8.8l21.2,10.3v37.7c0,3.6,3,6.6,6.6,6.6
		c3.6,0,6.6-3,6.6-6.6V74.2l22-12.9c3.1-1.9,4.2-5.9,2.3-9c-1.9-3.1-5.9-4.2-9-2.3L67.1,63L45.4,52.4z"/>
</g>
</svg>
