<?xml version="1.0" encoding="utf-8"?>
<!-- Generator: Adobe Illustrator 22.1.0, SVG Export Plug-In . SVG Version: 6.00 Build 0)  -->
<svg version="1.1" id="Calque_1" xmlns="http://www.w3.org/2000/svg" xmlns:xlink="http://www.w3.org/1999/xlink" x="0px" y="0px"
	 viewBox="0 0 160 160" style="enable-background:new 0 0 160 160;" xml:space="preserve">
<style type="text/css">
	.st0{opacity:0.1;fill:#02A29D;enable-background:new    ;}
	.st1{fill:#02A29D;}
</style>
<circle class="st0" cx="72.8" cy="87.6" r="45"/>
<g>
	<path class="st1" d="M96,95.5c1.5-0.1,3-0.9,3.9-2.2L113.9,74c0.4-0.6,0.4-1.4-0.2-1.9c-0.5-0.5-1.3-0.6-1.9-0.2L92.5,85.9
		c-1.3,0.9-2,2.3-2.2,3.9s0.4,3.1,1.5,4.2c1,1,2.3,1.6,3.7,1.6C95.8,95.5,95.9,95.5,96,95.5z M93.3,90c0.1-0.7,0.4-1.3,0.9-1.7
		l11.8-8.5l-8.5,11.8c-0.4,0.6-1,0.9-1.7,1c-0.7,0-1.3-0.2-1.8-0.7C93.5,91.4,93.2,90.7,93.3,90z"/>
	<path class="st1" d="M129.4,68.1C129.4,68,129.4,68,129.4,68.1c0-0.1-0.1-0.1-0.1-0.2c-1.5-2.6-3.3-5-5.3-7.2l3.2-3.2l2.1,2.1
		l6.3-6.3l-6.3-6.3l-6.3,6.3l2.1,2.1l-3.2,3.2c-2.2-2-4.6-3.8-7.2-5.3c0,0,0,0-0.1-0.1c0,0-0.1,0-0.1,0c-4.6-2.7-9.8-4.4-15.3-5.1
		v-1.8h2.2c2.1,0,3.7-1.7,3.7-3.7c0-2.1-1.7-3.7-3.7-3.7H88.1c-2.1,0-3.7,1.7-3.7,3.7c0,2.1,1.7,3.7,3.7,3.7h2.2v1.7
		c-1.6,0.2-3.2,0.4-4.8,0.8c-0.8,0.2-1.3,1-1.1,1.8c0.2,0.8,1,1.3,1.8,1.1c1.4-0.3,2.8-0.6,4.1-0.7l1.6-0.1c0.5,0,0.9-0.1,1.4-0.1
		v2.9c0,0.8,0.7,1.5,1.5,1.5s1.5-0.7,1.5-1.5v-2.9c5.6,0.3,10.9,1.8,15.6,4.2l-1.5,2.5c-0.4,0.7-0.2,1.6,0.5,2
		c0.2,0.1,0.5,0.2,0.7,0.2c0.5,0,1-0.3,1.3-0.7l1.5-2.5c4.7,3,8.6,6.9,11.6,11.6l-2.5,1.5c-0.7,0.4-1,1.3-0.5,2
		c0.3,0.5,0.8,0.7,1.3,0.7c0.3,0,0.5-0.1,0.7-0.2l2.5-1.5c2.5,4.8,4,10.1,4.2,15.8h-2.9c-0.8,0-1.5,0.7-1.5,1.5s0.7,1.5,1.5,1.5h2.9
		c-0.2,5.7-1.7,11.1-4.2,15.8l-2.5-1.5c-0.7-0.4-1.6-0.2-2,0.5c-0.4,0.7-0.2,1.6,0.5,2l2.5,1.5c-3,4.7-6.9,8.6-11.6,11.6l-1.5-2.5
		c-0.4-0.7-1.3-1-2-0.5c-0.7,0.4-1,1.3-0.5,2l1.5,2.5c-4.7,2.5-10,4-15.6,4.2v-2.9c0-0.8-0.7-1.5-1.5-1.5s-1.5,0.7-1.5,1.5v2.9
		c-2.4-0.1-4.8-0.4-7.1-0.9c-0.8-0.2-1.6,0.3-1.8,1.1c-0.2,0.8,0.3,1.6,1.1,1.8c3,0.7,6,1,9,1c0.1,0,0.1,0,0.2,0c0,0,0,0,0,0
		c0,0,0,0,0,0c7.2,0,13.9-2,19.7-5.3c0,0,0.1,0,0.1-0.1c0,0,0,0,0.1-0.1c6-3.5,11-8.5,14.6-14.5c0,0,0.1-0.1,0.1-0.1
		c0,0,0-0.1,0-0.1c3.4-5.9,5.4-12.7,5.4-20C134.7,80.8,132.8,74,129.4,68.1z M129.3,51.2l2.1,2.1l-2.1,2.1l-2.1-2.1L129.3,51.2z
		 M93.3,47.9v-4.5h-5.2c-0.4,0-0.7-0.3-0.7-0.7c0-0.4,0.3-0.7,0.7-0.7h13.4c0.4,0,0.7,0.3,0.7,0.7c0,0.4-0.3,0.7-0.7,0.7h-5.2v4.5
		c-0.5,0-1,0-1.5,0c0,0-0.1,0-0.1,0c0,0-0.1,0-0.1,0c-0.2,0-0.5,0-0.7,0C93.6,47.9,93.5,47.9,93.3,47.9z"/>
	<path class="st1" d="M81.4,59.8h-7.4c-0.8,0-1.5,0.7-1.5,1.5c0,0.8,0.7,1.5,1.5,1.5h7.4c0.8,0,1.5-0.7,1.5-1.5
		C82.9,60.4,82.2,59.8,81.4,59.8z"/>
	<path class="st1" d="M81.4,70.2H66.5c-0.8,0-1.5,0.7-1.5,1.5s0.7,1.5,1.5,1.5h14.9c0.8,0,1.5-0.7,1.5-1.5S82.2,70.2,81.4,70.2z"/>
	<path class="st1" d="M81.4,80.6H59c-0.8,0-1.5,0.7-1.5,1.5c0,0.8,0.7,1.5,1.5,1.5h22.3c0.8,0,1.5-0.7,1.5-1.5
		C82.9,81.3,82.2,80.6,81.4,80.6z"/>
	<path class="st1" d="M81.4,91H53.1c-0.8,0-1.5,0.7-1.5,1.5s0.7,1.5,1.5,1.5h28.3c0.8,0,1.5-0.7,1.5-1.5S82.2,91,81.4,91z"/>
	<path class="st1" d="M81.4,101.5H62c-0.8,0-1.5,0.7-1.5,1.5s0.7,1.5,1.5,1.5h19.4c0.8,0,1.5-0.7,1.5-1.5S82.2,101.5,81.4,101.5z"/>
	<path class="st1" d="M81.4,111.9H71c-0.8,0-1.5,0.7-1.5,1.5s0.7,1.5,1.5,1.5h10.4c0.8,0,1.5-0.7,1.5-1.5S82.2,111.9,81.4,111.9z"/>
</g>
</svg>
