<?xml version="1.0" encoding="utf-8"?>
<!-- Generator: Adobe Illustrator 23.0.1, SVG Export Plug-In . SVG Version: 6.00 Build 0)  -->
<svg version="1.1" id="Calque_1" xmlns="http://www.w3.org/2000/svg" xmlns:xlink="http://www.w3.org/1999/xlink" x="0px" y="0px"
	 viewBox="0 0 42.5 40" style="enable-background:new 0 0 42.5 40;" xml:space="preserve">
<style type="text/css">
	.st0{fill:#1163F0;}
	.st1{fill:#4BAD4D;}
	.st2{opacity:0.25;fill:#333333;}
	.st3{fill:#E85454;}
	.st4{fill:#FF5A5A;}
	.st5{fill:#FFFFFF;}
	.st6{fill:#D8A83D;}
	.st7{fill:#F1BE41;}
</style>
<g>
	<path class="st0" d="M42.5,20c0-11-9-20-20-20s-20,9-20,20c0,7.2,3.8,13.6,9.6,17.1c3,1.9,6.6,2.9,10.4,2.9
		C33.6,40,42.5,31,42.5,20z"/>
	<g>
		<path class="st1" d="M17.3,22.2L4.1,27.9c1.6,3.8,4.5,7.1,8,9.2c1.9,1.2,4.1,2,6.4,2.5l0.2-0.1l1.5-2.6h1.1c1.3,0,2.3-1,2.3-2.3
			v-1.1c0-0.5,0.2-1,0.4-1.4l-3.2-4.7L17.3,22.2z"/>
		<path class="st1" d="M22.5,0C18.7,0,15.1,1.1,12,3v0.5l5,1.9c0.4,0.2,0.7,0.6,0.7,1.1l0,0c0.4,1.2,1.7,1.7,2.8,1.1L21.6,7
			c3.1-1.7,6.8,0.9,6.4,4.4l0,0.1c-0.1,0.9-0.7,1.6-1.5,1.8c-0.5,0.1-1.1,0.3-1.7,0.4c-0.8,0.2-1.3,0.8-1.5,1.6l-0.7,3.5
			c-0.2,1.2,0.7,2.4,1.9,2.4l0.9,0c0.3,0,0.5,0.1,0.7,0.2l4.8,5.6L30.5,33c-0.1,1.9,1,3.3,2.5,3.9l0.3,0c5.6-3.6,9.3-9.8,9.3-16.9
			C42.5,9,33.6,0,22.5,0z"/>
	</g>
	<path class="st2" d="M22.5,0c-11,0-20,9-20,20c0,7.2,3.8,13.6,9.6,17.1c3,1.9,6.6,2.9,10.4,2.9c11,0,20-9,20-20
		C42.5,9,33.6,0,22.5,0z M20.7,35.6c-3.3,0-6.4-0.9-9.1-2.5c-5-3.1-8.3-8.6-8.3-14.9c0-9.6,7.8-17.4,17.4-17.4s17.4,7.8,17.4,17.4
		C38.1,27.8,30.3,35.6,20.7,35.6z"/>
	<path class="st3" d="M42.5,6c0-3.3-2.7-6-6-6s-6,2.7-6,6c0,1.4,0.5,2.8,1.3,3.8h0l4.7,6l4.6-5.9h0C42,8.8,42.5,7.5,42.5,6z"/>
	<path class="st4" d="M37.4,14.6l3.8-4.8h0c0.9-1,1.4-2.4,1.4-3.8c0-3.3-2.7-6-6-6c-1.6,0-3.1,0.7-4.2,1.7c-0.6,0.9-0.9,2-0.9,3.2
		c0,1.4,0.5,2.8,1.3,3.8h0L37.4,14.6z"/>
	<circle class="st5" cx="36.5" cy="6.1" r="2.8"/>
	<path class="st6" d="M17.8,14.1c0-4.9-4-8.9-8.9-8.9S0,9.2,0,14.1c0,2.1,0.8,4.1,2,5.6h0l6.9,8.9l6.9-8.8h0
		C17.1,18.2,17.8,16.2,17.8,14.1z"/>
	<path class="st7" d="M9.9,27.3l5.9-7.5h0c1.3-1.5,2-3.5,2-5.7c0-4.9-4-8.9-8.9-8.9C6.4,5.2,4.1,6.3,2.4,8C1.5,9.4,1,11,1,12.8
		c0,2.1,0.8,4.1,2,5.6h0L9.9,27.3z"/>
	<g>
		<path class="st5" d="M7.5,10.9l-0.6-0.2 M6.3,17.1l1.1,1.6c0,0,0,0,0,0c0,0,0.1,0,0.1,0.1c0.1,0,0.1,0,0.1-0.1l0.5-0.5
			c0,0,0.1-0.1,0-0.2l-0.5-1.9l0.8-0.5c0,0,0,0,0,0l1.1-1.1l1.8,3.9c0,0,0,0,0,0.1c0,0,0.1,0,0.1,0c0.1,0,0.1,0,0.2,0l0.7-0.7
			c0,0,0.1-0.1,0-0.2l-0.2-0.7L11.4,14l-0.3-1l1.3-1.3c0.4-0.4,0.7-0.9,0.9-1.4c0.1-0.2,0.1-0.5,0-0.7c-0.2-0.3-0.5-0.4-0.9-0.3
			c-0.5,0.2-1,0.5-1.4,0.9l-1.3,1.3l-1-0.3l-2.9-0.8l-0.7-0.2c-0.1,0-0.1,0-0.2,0l-0.7,0.7c0,0-0.1,0.1,0,0.2c0,0,0,0.1,0,0.1
			c0,0,0,0,0.1,0L8.1,13l-1.1,1.1c0,0,0,0,0,0l-0.5,0.8l-1.9-0.5c-0.1,0-0.1,0-0.2,0l-0.5,0.5c0,0-0.1,0.1-0.1,0.1
			c0,0,0,0.1,0.1,0.1c0,0,0,0,0,0l1.6,1.1L6.3,17.1z M11.9,15.7l-0.2-0.6 M12.2,16.4L12,16 M8.3,11.1L7.9,11 M6.6,10.6l-0.4-0.1"/>
	</g>
</g>
</svg>
