<?xml version="1.0" encoding="utf-8"?>
<!-- Generator: Adobe Illustrator 23.0.1, SVG Export Plug-In . SVG Version: 6.00 Build 0)  -->
<svg version="1.1" id="Calque_1" xmlns="http://www.w3.org/2000/svg" xmlns:xlink="http://www.w3.org/1999/xlink" x="0px" y="0px"
	 viewBox="0 0 41.2 40" style="enable-background:new 0 0 41.2 40;" xml:space="preserve">
<style type="text/css">
	.st0{fill:#7C3F2C;}
	.st1{fill:#FFC14F;}
	.st2{fill:#AE583E;}
	.st3{fill:#C0694E;}
	.st4{fill:#FF4343;}
	.st5{fill:#F75757;}
</style>
<g>
	<path class="st0" d="M0,9.8v25.4C0,37.8,2.2,40,4.8,40h31.5c2.7,0,4.8-2.2,4.8-4.8V9.8c0-1.4-1.2-2.6-2.6-2.6h-36
		C1.2,7.2,0,8.3,0,9.8z"/>
	<path class="st1" d="M27.9,0H13.4c-1.8,0-3.3,1.7-3.3,3.7v6.2c0,0.7,0.6,1.3,1.3,1.3c0.7,0,1.3-0.6,1.3-1.3V3.7c0-0.6,0.4-1,0.6-1
		h14.5c0.2,0,0.6,0.4,0.6,1v6.2c0,0.7,0.6,1.3,1.3,1.3c0.7,0,1.3-0.6,1.3-1.3V3.7C31.2,1.7,29.7,0,27.9,0z"/>
	<path class="st2" d="M41.2,9.8v3.6c0,0.5,0,1-0.1,1.5c-0.7,3.4-3.7,6-7.4,6H7.5c-4.1,0-7.5-3.4-7.5-7.5V9.8c0-1.3,0.9-2.3,2.1-2.6
		c0.2,0,0.3,0,0.5,0h36C40,7.2,41.2,8.3,41.2,9.8z"/>
	<path class="st3" d="M41.2,9.8v3.6c0,0.5,0,1-0.1,1.5c-1.4,1.3-3.2,2.1-5.2,2.1H9.7c-4.1,0-7.5-3.4-7.5-7.5V7.2c0.2,0,0.3,0,0.5,0
		h36C40,7.2,41.2,8.3,41.2,9.8z"/>
	<path class="st4" d="M18.6,25C18.6,25,18.6,25,18.6,25L14.4,6.6c-0.1-0.7-0.5-1.2-1.2-1.2H9.8c-0.7,0-1.1,0.5-1.2,1.2L4.3,25
		c-0.1,0.4,0,0.8,0.3,1.1l6,6c0.5,0.5,1.2,0.5,1.7,0l6-6C18.6,25.8,18.7,25.4,18.6,25z"/>
	<path class="st5" d="M16.8,16.9l-2.3-9.8h-6l-2.1,9c1,0.5,2.1,0.8,3.3,0.8H16.8z"/>
</g>
</svg>
