<?xml version="1.0" encoding="utf-8"?>
<!-- Generator: Adobe Illustrator 23.0.1, SVG Export Plug-In . SVG Version: 6.00 Build 0)  -->
<svg version="1.1" id="Calque_1" xmlns="http://www.w3.org/2000/svg" xmlns:xlink="http://www.w3.org/1999/xlink" x="0px" y="0px"
	 viewBox="0 0 41.2 40" style="enable-background:new 0 0 41.2 40;" xml:space="preserve">
<style type="text/css">
	.st0{fill:#E9E9E9;}
	.st1{fill:#C9C9C9;}
	.st2{fill:#B9B9B9;}
	.st3{opacity:0.35;fill:#B9B9B9;}
	.st4{fill:#FC751B;}
	.st5{fill:#D35E1C;}
</style>
<g>
	<polygon class="st0" points="5,0 5,39.7 26.1,39.7 35.7,30.2 35.7,0 	"/>
	<rect x="8.7" y="22.2" class="st1" width="23.2" height="1.2"/>
	<rect x="8.7" y="19.2" class="st1" width="23.2" height="1.2"/>
	<rect x="11.1" y="25.3" class="st1" width="10.2" height="1.2"/>
	<rect x="8.7" y="25.3" class="st1" width="1.4" height="1.2"/>
	<rect x="11.1" y="28" class="st1" width="10.2" height="1.2"/>
	<rect x="8.7" y="28" class="st1" width="1.4" height="1.2"/>
	<rect x="8.7" y="31.1" class="st1" width="23.2" height="1.2"/>
	<rect x="8.7" y="34.2" class="st1" width="21.2" height="1.2"/>
	<polygon class="st2" points="26.1,39.7 26.1,30.2 35.7,30.2 	"/>
	<polygon class="st3" points="26.1,30.2 26.1,39.7 16.6,39.7 	"/>
	<g>
		<rect x="8.7" y="3.8" class="st4" width="23.2" height="11.8"/>
		<polygon class="st5" points="8.7,15.6 14.8,10.5 18.2,13.1 26.1,7.6 32,15.6 		"/>
		<circle class="st5" cx="19.1" cy="7.6" r="1.4"/>
	</g>
</g>
</svg>
