<?xml version="1.0" encoding="utf-8"?>
<!-- Generator: Adobe Illustrator 23.0.1, SVG Export Plug-In . SVG Version: 6.00 Build 0)  -->
<svg version="1.1" id="Calque_1" xmlns="http://www.w3.org/2000/svg" xmlns:xlink="http://www.w3.org/1999/xlink" x="0px" y="0px"
	 viewBox="0 0 62 62" style="enable-background:new 0 0 62 62;" xml:space="preserve">
<style type="text/css">
	.st0{fill:#02A29D;}
	.st1{opacity:0.5;fill:#02A29D;}
	.st2{fill:#00A29D;}
</style>
<g>
	<path class="st0" d="M25.7,22.5l-5.4,5.4L18.4,26c-0.9-0.9-2.3-0.9-3.2,0c-0.4,0.4-0.7,1-0.7,1.6s0.2,1.2,0.7,1.6l3.5,3.5
		c0.4,0.4,1,0.7,1.6,0.7s1.2-0.2,1.6-0.7l7-7c0.9-0.9,0.9-2.3,0-3.2C28.1,21.6,26.6,21.6,25.7,22.5z"/>
	<path class="st0" d="M43.4,43.2c0.4,0.4,1,0.7,1.6,0.7s1.2-0.2,1.6-0.7l7-7c0.9-0.9,0.9-2.3,0-3.2c-0.9-0.9-2.3-0.9-3.2,0L45,38.4
		l-1.9-1.9c-0.9-0.9-2.3-0.9-3.2,0c-0.4,0.4-0.7,1-0.7,1.6s0.2,1.2,0.7,1.6L43.4,43.2z"/>
	<g>
		<path class="st1" d="M43.8,15.8V6.4c0-3.2-2.6-5.8-5.8-5.8H6.1c-3.2,0-5.8,2.6-5.8,5.8v42.4c0,3.2,2.6,5.8,5.8,5.8h26.1V50H6.1
			c-0.7,0-1.3-0.6-1.3-1.3v-1.4h27.3v-4.5H4.9V6.4c0-0.7,0.6-1.3,1.3-1.3H38c0.7,0,1.3,0.6,1.3,1.3v9.4H43.8z"/>
	</g>
	<path class="st2" d="M55.4,14.9H38.2c-3.3,0-6,2.7-6,6v34.7c0,3.3,2.7,6,6,6h17.2c3.3,0,6-2.7,6-6V20.9
		C61.4,17.6,58.7,14.9,55.4,14.9z M38.2,19.9h17.2c0.6,0,1,0.4,1,1v0.9H37.2v-0.9C37.2,20.4,37.6,19.9,38.2,19.9z M56.4,26.3v23.6
		H37.2V26.3H56.4z M55.4,56.6H38.2c-0.6,0-1-0.4-1-1v-1.1h19.2v1.1C56.4,56.1,55.9,56.6,55.4,56.6z"/>
</g>
</svg>
