<?xml version="1.0" encoding="utf-8"?>
<!-- Generator: Adobe Illustrator 23.0.1, SVG Export Plug-In . SVG Version: 6.00 Build 0)  -->
<svg version="1.1" id="Calque_1" xmlns="http://www.w3.org/2000/svg" xmlns:xlink="http://www.w3.org/1999/xlink" x="0px" y="0px"
	 viewBox="0 0 72 62" style="enable-background:new 0 0 72 62;" xml:space="preserve">
<style type="text/css">
	.st0{opacity:0.5;fill:#02A29D;}
	.st1{fill:#02A29D;}
</style>
<path class="st0" d="M66,0.6H6.4c-3,0-5.5,2.5-5.5,5.5c0,2.5,0,47.6,0,50c0,3,2.5,5.5,5.5,5.5H66c3,0,5.5-2.5,5.5-5.5
	c0-2.5,0-47.6,0-50C71.5,3.1,69,0.6,66,0.6z M66.8,56.1c0,0.4-0.4,0.8-0.8,0.8H6.4c-0.4,0-0.8-0.4-0.8-0.8V17h61.1L66.8,56.1
	L66.8,56.1z M66.8,12.3H5.6V6.1c0-0.4,0.4-0.8,0.8-0.8H66c0.4,0,0.8,0.4,0.8,0.8L66.8,12.3L66.8,12.3z"/>
<circle class="st1" cx="10.8" cy="8.8" r="1.8"/>
<circle class="st1" cx="16.5" cy="8.8" r="1.8"/>
<circle class="st1" cx="22.2" cy="8.8" r="1.8"/>
<path class="st1" d="M54,41.1l3.4,3.4c0.9,0.9,2.4,0.9,3.3,0c0.9-0.9,0.9-2.4,0-3.3l-3.4-3.4c1-2.4,0.6-5.2-1.3-7.2
	c-2.5-2.5-6.6-2.5-9.1,0c-2.5,2.5-2.5,6.6,0,9.1C48.8,41.7,51.6,42.2,54,41.1z M50.2,34c0.7-0.7,1.8-0.7,2.5,0
	c0.7,0.7,0.7,1.8,0,2.5c0,0,0,0,0,0c0,0,0,0,0,0c-0.7,0.7-1.8,0.7-2.5,0C49.5,35.8,49.5,34.7,50.2,34z"/>
<path class="st1" d="M13.4,45.2h28.9c1.3,0,2.4-1.1,2.4-2.4c0-1.3-1.1-2.4-2.4-2.4H13.4c-1.3,0-2.4,1.1-2.4,2.4
	C11,44.2,12.1,45.2,13.4,45.2z"/>
</svg>
