<?xml version="1.0" encoding="utf-8"?>
<!-- Generator: Adobe Illustrator 23.0.1, SVG Export Plug-In . SVG Version: 6.00 Build 0)  -->
<svg version="1.1" id="Calque_1" xmlns="http://www.w3.org/2000/svg" xmlns:xlink="http://www.w3.org/1999/xlink" x="0px" y="0px"
	 viewBox="0 0 70 60" style="enable-background:new 0 0 70 60;" xml:space="preserve">
<style type="text/css">
	.st0{opacity:0.5;fill:#02A29D;}
	.st1{fill:#02A29D;}
	.st2{opacity:0.5;fill:#00A29D;stroke:#00A29D;stroke-miterlimit:10;}
	.st3{fill:#00A29D;stroke:#00A29D;stroke-miterlimit:10;}
</style>
<g>
	<path class="st0" d="M64.3,0H5.7c-3,0-5.4,2.4-5.4,5.4c0,2.4,0,46.8,0,49.2c0,3,2.4,5.4,5.4,5.4h58.6c3,0,5.4-2.4,5.4-5.4
		c0-2.4,0-46.8,0-49.2C69.7,2.4,67.3,0,64.3,0z M65.1,54.6c0,0.4-0.3,0.8-0.8,0.8H5.7c-0.4,0-0.8-0.3-0.8-0.8V16.2h60.1L65.1,54.6
		L65.1,54.6z M65.1,11.5H4.9V5.4c0-0.4,0.3-0.8,0.8-0.8h58.6c0.4,0,0.8,0.3,0.8,0.8V11.5L65.1,11.5z"/>
	<circle class="st1" cx="10" cy="8.1" r="1.7"/>
	<circle class="st1" cx="15.6" cy="8.1" r="1.7"/>
	<circle class="st1" cx="21.2" cy="8.1" r="1.7"/>
	<g>
		<path class="st2" d="M31.3,36.6c0.1,0.7,0.6,1.2,1.3,1.2c0,0,0.1,0,0.1,0c0.7-0.1,1.2-0.7,1.2-1.4l-0.6-5.8
			c-0.1-0.7-0.7-1.2-1.4-1.2c-0.7,0.1-1.2,0.7-1.2,1.4L31.3,36.6z"/>
		<path class="st2" d="M39.4,37.7c0,0,0.1,0,0.1,0c0.7,0,1.2-0.5,1.3-1.2l0.6-5.8c0.1-0.7-0.4-1.3-1.2-1.4c-0.7-0.1-1.3,0.4-1.4,1.2
			l-0.6,5.8C38.2,37,38.7,37.6,39.4,37.7z"/>
		<path class="st3" d="M29.4,44.3c-2.2,0-4,1.8-4,4c0,2.2,1.8,4,4,4s4-1.8,4-4C33.4,46.1,31.6,44.3,29.4,44.3z M29.4,49.7
			c-0.8,0-1.4-0.6-1.4-1.4c0-0.8,0.6-1.4,1.4-1.4s1.4,0.6,1.4,1.4C30.8,49.1,30.2,49.7,29.4,49.7z"/>
		<path class="st3" d="M42.7,44.3c-2.2,0-4,1.8-4,4c0,2.2,1.8,4,4,4c2.2,0,4-1.8,4-4C46.7,46.1,44.9,44.3,42.7,44.3z M42.7,49.7
			c-0.8,0-1.4-0.6-1.4-1.4c0-0.8,0.6-1.4,1.4-1.4c0.8,0,1.4,0.6,1.4,1.4C44.1,49.1,43.5,49.7,42.7,49.7z"/>
		<path class="st3" d="M50.4,25.1c-0.2-0.3-0.6-0.5-1-0.5H23.7l-1.1-4.2c-0.1-0.6-0.7-1-1.3-1H16c-0.7,0-1.3,0.6-1.3,1.3
			S15.3,22,16,22h4.3l1.1,4.1c0,0,0,0.1,0,0.1l4,15.3c0.1,0.6,0.7,1,1.3,1h18.8c0.6,0,1.1-0.4,1.3-1l4-15.4
			C50.8,25.8,50.7,25.4,50.4,25.1z M44.4,39.9H27.7l-3.3-12.8h23.4L44.4,39.9z"/>
	</g>
</g>
</svg>
