<?xml version="1.0" encoding="utf-8"?>
<!-- Generator: Adobe Illustrator 23.0.1, SVG Export Plug-In . SVG Version: 6.00 Build 0)  -->
<svg version="1.1" id="Calque_1" xmlns="http://www.w3.org/2000/svg" xmlns:xlink="http://www.w3.org/1999/xlink" x="0px" y="0px"
	 viewBox="0 0 39.4 40" style="enable-background:new 0 0 39.4 40;" xml:space="preserve">
<style type="text/css">
	.st0{fill:#FF491F;}
	.st1{fill:#ED3618;}
	.st2{fill:#FFE14D;}
	.st3{fill:#B2291B;}
	.st4{fill:#8E7C32;}
	.st5{fill:#3C3F4D;}
</style>
<path class="st0" d="M31.9,40H1.2C0.5,40,0,39.5,0,38.8L3,8.7C3,8,3.5,7.5,4.1,7.5h24.8c0.7,0,1.2,0.5,1.2,1.2l3,30.1
	C33.1,39.5,32.6,40,31.9,40z"/>
<path class="st1" d="M36.9,40H16c-0.4,0-0.8-0.4-0.8-0.8l2-20.4c0-0.4,0.4-0.8,0.8-0.8h16.8c0.4,0,0.8,0.4,0.8,0.8l2,20.4
	C37.7,39.6,37.3,40,36.9,40z"/>
<path class="st2" d="M38.6,40H17.8c-0.4,0-0.8-0.4-0.8-0.8l2-20.4c0-0.4,0.4-0.8,0.8-0.8h16.8c0.4,0,0.8,0.4,0.8,0.8l2,20.4
	C39.4,39.6,39.1,40,38.6,40z"/>
<path class="st3" d="M10.9,11.3c-1.2,0-2.1,0.9-2.1,2.1s0.9,2.1,2.1,2.1s2.1-0.9,2.1-2.1S12.1,11.3,10.9,11.3z"/>
<path class="st3" d="M22.9,11.3c-1.2,0-2.1,0.9-2.1,2.1s0.9,2.1,2.1,2.1c1.2,0,2.1-0.9,2.1-2.1S24,11.3,22.9,11.3z"/>
<circle class="st4" cx="24.7" cy="21.1" r="1.8"/>
<circle class="st4" cx="31.9" cy="21.1" r="1.8"/>
<path class="st5" d="M16.9,0c-3.8,0-6.8,3.1-6.8,6.8v5.5c0,0.5,0.4,0.9,0.8,0.9c0.5,0,0.9-0.4,0.9-0.9V6.8c0-2.8,2.3-5.1,5.1-5.1
	C19.7,1.7,22,4,22,6.8v5.5c0,0.5,0.4,0.9,0.8,0.9s0.9-0.4,0.9-0.9V6.8C23.7,3.1,20.7,0,16.9,0z"/>
<path class="st5" d="M31.9,21.5c-0.5,0-0.9,0.4-0.9,0.9v3.6c0,1.5-1.2,2.7-2.7,2.7c-1.5,0-2.7-1.2-2.7-2.7v-3.6
	c0-0.5-0.4-0.9-0.9-0.9s-0.8,0.4-0.8,0.9v3.6c0,2.4,2,4.4,4.4,4.4s4.4-2,4.4-4.4v-3.6C32.7,21.9,32.3,21.5,31.9,21.5z"/>
</svg>
