<?xml version="1.0" encoding="utf-8"?>
<!-- Generator: Adobe Illustrator 23.0.3, SVG Export Plug-In . SVG Version: 6.00 Build 0)  -->
<svg version="1.1" id="Calque_1" xmlns="http://www.w3.org/2000/svg" xmlns:xlink="http://www.w3.org/1999/xlink" x="0px" y="0px"
	 viewBox="0 0 150.2 150" style="enable-background:new 0 0 150.2 150;" xml:space="preserve">
<style type="text/css">
	.st0{fill:url(#SVGID_1_);}
	.st1{fill:#B79A79;}
	.st2{fill:url(#SVGID_2_);}
	.st3{fill:#C6A887;}
	.st4{fill:url(#SVGID_3_);}
	.st5{fill:#D3B28D;}
</style>
<linearGradient id="SVGID_1_" gradientUnits="userSpaceOnUse" x1="18.5348" y1="93.3656" x2="115.4733" y2="76.2728" gradientTransform="matrix(-1 0 0 1 142.2 -9.9)">
	<stop  offset="0" style="stop-color:#987758"/>
	<stop  offset="0.363" style="stop-color:#9D7B59"/>
	<stop  offset="0.8209" style="stop-color:#AD865B"/>
	<stop  offset="0.8659" style="stop-color:#AF875B"/>
</linearGradient>
<rect x="32.7" y="32.5" class="st0" width="85" height="84.8"/>
<polygon class="st1" points="34.2,115.8 34.2,34.1 23.8,23.6 23.8,126.3 "/>
<linearGradient id="SVGID_2_" gradientUnits="userSpaceOnUse" x1="15.6041" y1="130.9692" x2="118.4041" y2="130.9692" gradientTransform="matrix(-1 0 0 1 142.2 -9.9)">
	<stop  offset="3.584340e-03" style="stop-color:#9E7951"/>
	<stop  offset="0.8746" style="stop-color:#8C6E50"/>
</linearGradient>
<polygon class="st2" points="116.2,115.8 34.2,115.8 23.8,126.3 126.6,126.3 "/>
<polygon class="st3" points="34.2,34.1 116.2,34.1 126.6,23.6 23.8,23.6 "/>
<linearGradient id="SVGID_3_" gradientUnits="userSpaceOnUse" x1="15.6467" y1="84.8692" x2="26.0467" y2="84.8692" gradientTransform="matrix(-1 0 0 1 142.2 -9.9)">
	<stop  offset="3.584340e-03" style="stop-color:#9E7951"/>
	<stop  offset="0.8746" style="stop-color:#8C6E50"/>
</linearGradient>
<polygon class="st4" points="116.2,34.1 116.2,115.8 126.6,126.3 126.6,23.6 "/>
<polygon class="st5" points="0.1,27.8 23.8,23.6 23.8,126.3 0.1,122.1 "/>
<polygon class="st5" points="27.9,149.9 23.8,126.3 126.6,126.3 122.5,149.9 "/>
<polygon class="st5" points="122.5,0 126.6,23.6 23.8,23.6 27.9,0 "/>
<polygon class="st5" points="126.6,23.6 150.3,27.8 150.3,122.1 126.6,126.3 "/>
</svg>
